<mxfile host="app.diagrams.net" agent="Mozilla/5.0 (Macintosh; Intel Mac OS X 10.15; rv:128.0) Gecko/20100101 Firefox/128.0" version="27.1.6">
  <diagram name="Page-1" id="acl9b-Ro4dWBJq8NwQiJ">
    <mxGraphModel dx="1173" dy="1134" grid="1" gridSize="10" guides="1" tooltips="1" connect="1" arrows="1" fold="1" page="1" pageScale="1" pageWidth="850" pageHeight="1100" math="0" shadow="0">
      <root>
        <mxCell id="0" />
        <mxCell id="1" parent="0" />
        <mxCell id="t7H4enkIU8ulNd7rulKI-4" value="" style="edgeStyle=orthogonalEdgeStyle;rounded=0;orthogonalLoop=1;jettySize=auto;html=1;" edge="1" parent="1" source="t7H4enkIU8ulNd7rulKI-2" target="t7H4enkIU8ulNd7rulKI-3">
          <mxGeometry relative="1" as="geometry" />
        </mxCell>
        <mxCell id="t7H4enkIU8ulNd7rulKI-2" value="&lt;font style=&quot;font-size: 25px;&quot;&gt;A&lt;/font&gt;" style="rounded=0;whiteSpace=wrap;html=1;fillColor=#f8cecc;strokeColor=#b85450;" vertex="1" parent="1">
          <mxGeometry x="110" y="250" width="120" height="60" as="geometry" />
        </mxCell>
        <mxCell id="t7H4enkIU8ulNd7rulKI-3" value="$$G=(V,E)$$" style="rounded=0;whiteSpace=wrap;html=1;fillColor=#d5e8d4;strokeColor=#82b366;fontSize=25;" vertex="1" parent="1">
          <mxGeometry x="300" y="250" width="120" height="60" as="geometry" />
        </mxCell>
        <mxCell id="t7H4enkIU8ulNd7rulKI-5" value="AMGLearn" style="rounded=0;whiteSpace=wrap;html=1;fillColor=#e1d5e7;strokeColor=#9673a6;fontSize=25;" vertex="1" parent="1">
          <mxGeometry x="460" y="250" width="180" height="60" as="geometry" />
        </mxCell>
        <mxCell id="t7H4enkIU8ulNd7rulKI-6" value="G(V,E)" style="rounded=0;whiteSpace=wrap;html=1;fillColor=#dae8fc;strokeColor=#6c8ebf;fontSize=25;" vertex="1" parent="1">
          <mxGeometry x="680" y="250" width="180" height="60" as="geometry" />
        </mxCell>
      </root>
    </mxGraphModel>
  </diagram>
</mxfile>
